<svg width="95" height="20" viewBox="0 0 95 20" fill="none" xmlns="http://www.w3.org/2000/svg">
<path d="M14.461 16.192C13.4477 16.192 12.6317 15.84 12.013 15.136C11.3943 14.4213 11.085 13.4187 11.085 12.128C11.085 11.2853 11.2503 10.56 11.581 9.952C11.9223 9.33333 12.3597 8.85867 12.893 8.528C13.437 8.19733 14.013 8.032 14.621 8.032C15.0797 8.032 15.4957 8.12267 15.869 8.304C16.253 8.47467 16.6103 8.72 16.941 9.04H16.989L16.925 7.6V4.608H18.237V16H17.149L17.037 14.976H16.989C16.6797 15.3067 16.301 15.5947 15.853 15.84C15.4157 16.0747 14.9517 16.192 14.461 16.192ZM14.733 15.088C15.117 15.088 15.4903 14.992 15.853 14.8C16.2157 14.5973 16.573 14.304 16.925 13.92V10.048C16.573 9.71733 16.2263 9.48267 15.885 9.344C15.5543 9.20533 15.2183 9.136 14.877 9.136C14.429 9.136 14.0183 9.264 13.645 9.52C13.2823 9.76533 12.989 10.112 12.765 10.56C12.5517 10.9973 12.445 11.5147 12.445 12.112C12.445 13.04 12.6477 13.7707 13.053 14.304C13.4583 14.8267 14.0183 15.088 14.733 15.088ZM24.9988 16.192C24.2201 16.192 23.5108 16.032 22.8708 15.712C22.2414 15.392 21.7401 14.928 21.3668 14.32C20.9934 13.7013 20.8068 12.96 20.8068 12.096C20.8068 11.2533 20.9934 10.528 21.3668 9.92C21.7401 9.312 22.2254 8.848 22.8228 8.528C23.4308 8.19733 24.0814 8.032 24.7748 8.032C25.5214 8.032 26.1561 8.18667 26.6788 8.496C27.2121 8.79467 27.6174 9.216 27.8948 9.76C28.1828 10.304 28.3268 10.944 28.3268 11.68C28.3268 11.8293 28.3214 11.9733 28.3108 12.112C28.3001 12.2507 28.2841 12.3733 28.2628 12.48H21.6868V11.456H27.4788L27.1428 11.824C27.1428 10.9067 26.9294 10.2187 26.5028 9.76C26.0868 9.30133 25.5214 9.072 24.8068 9.072C24.3268 9.072 23.8788 9.18933 23.4628 9.424C23.0574 9.65867 22.7321 10 22.4868 10.448C22.2414 10.896 22.1188 11.4453 22.1188 12.096C22.1188 12.768 22.2521 13.328 22.5188 13.776C22.7854 14.224 23.1481 14.5653 23.6068 14.8C24.0654 15.024 24.5828 15.136 25.1588 15.136C25.6281 15.136 26.0494 15.072 26.4228 14.944C26.8068 14.8053 27.1748 14.624 27.5268 14.4L28.0068 15.264C27.6228 15.52 27.1801 15.7387 26.6788 15.92C26.1881 16.1013 25.6281 16.192 24.9988 16.192ZM33.4085 16L30.1285 8.224H31.4565L33.2485 12.64C33.4085 13.024 33.5578 13.408 33.6965 13.792C33.8458 14.176 33.9898 14.5547 34.1285 14.928H34.1925C34.3312 14.5547 34.4698 14.176 34.6085 13.792C34.7472 13.408 34.8912 13.024 35.0405 12.64L36.8325 8.224H38.0965L34.8805 16H33.4085ZM43.8663 16.192C43.1089 16.192 42.3996 16.0693 41.7383 15.824C41.0769 15.5787 40.5116 15.296 40.0423 14.976L40.6503 14.112C41.0983 14.432 41.5943 14.688 42.1383 14.88C42.6823 15.072 43.3116 15.168 44.0263 15.168C44.6876 15.168 45.1783 15.0453 45.4983 14.8C45.8289 14.5547 45.9943 14.272 45.9943 13.952C45.9943 13.8027 45.9623 13.664 45.8983 13.536C45.8449 13.408 45.7329 13.2853 45.5623 13.168C45.4023 13.0507 45.1623 12.9387 44.8423 12.832C44.5223 12.7253 44.0956 12.6187 43.5623 12.512C42.5489 12.2987 41.7863 12.0107 41.2743 11.648C40.7729 11.2853 40.5223 10.816 40.5223 10.24C40.5223 9.61067 40.7943 9.088 41.3383 8.672C41.8823 8.24533 42.6876 8.032 43.7543 8.032C44.3516 8.032 44.9276 8.13333 45.4823 8.336C46.0369 8.528 46.5063 8.75733 46.8903 9.024L46.2503 9.872C45.8983 9.616 45.4983 9.41867 45.0503 9.28C44.6023 9.13067 44.1329 9.056 43.6423 9.056C43.1943 9.056 42.8369 9.10933 42.5703 9.216C42.3143 9.312 42.1276 9.44533 42.0103 9.616C41.9036 9.78667 41.8503 9.97333 41.8503 10.176C41.8503 10.5067 42.0263 10.768 42.3783 10.96C42.7409 11.1413 43.3169 11.312 44.1063 11.472C44.9703 11.6533 45.6316 11.856 46.0903 12.08C46.5596 12.304 46.8796 12.56 47.0503 12.848C47.2316 13.136 47.3223 13.4773 47.3223 13.872C47.3223 14.2987 47.1889 14.688 46.9223 15.04C46.6556 15.3813 46.2663 15.6587 45.7543 15.872C45.2423 16.0853 44.6129 16.192 43.8663 16.192ZM49.988 16V4.608H51.3V7.712L51.22 9.552H51.268C51.6627 9.12533 52.0947 8.768 52.564 8.48C53.0333 8.18133 53.572 8.032 54.18 8.032C55.0973 8.032 55.7747 8.29867 56.212 8.832C56.6493 9.36533 56.868 10.144 56.868 11.168V16H55.556V11.344C55.556 10.608 55.4173 10.064 55.14 9.712C54.8627 9.34933 54.404 9.168 53.764 9.168C53.3053 9.168 52.8947 9.28533 52.532 9.52C52.1693 9.75467 51.7587 10.1067 51.3 10.576V16H49.988ZM62.0298 16.192C61.5498 16.192 61.1071 16.1067 60.7018 15.936C60.2964 15.7547 59.9764 15.4987 59.7418 15.168C59.5071 14.8373 59.3898 14.4427 59.3898 13.984C59.3898 13.1093 59.8271 12.448 60.7018 12C61.5764 11.5413 63.0164 11.232 65.0218 11.072C65.0111 10.72 64.9364 10.3947 64.7978 10.096C64.6698 9.79733 64.4564 9.56267 64.1578 9.392C63.8591 9.21067 63.4591 9.12 62.9578 9.12C62.6271 9.12 62.2964 9.168 61.9658 9.264C61.6458 9.34933 61.3364 9.46667 61.0378 9.616C60.7498 9.75467 60.4831 9.89867 60.2378 10.048L59.7258 9.152C59.9818 8.98133 60.2911 8.81067 60.6538 8.64C61.0271 8.45867 61.4271 8.31467 61.8538 8.208C62.2804 8.09067 62.7231 8.032 63.1818 8.032C63.8964 8.032 64.4831 8.16533 64.9418 8.432C65.4111 8.69867 65.7578 9.072 65.9818 9.552C66.2164 10.0213 66.3338 10.5813 66.3338 11.232V16H65.2618L65.1498 14.944H65.1018C64.6751 15.2853 64.1951 15.5787 63.6618 15.824C63.1284 16.0693 62.5844 16.192 62.0298 16.192ZM62.3818 15.136C62.8298 15.136 63.2724 15.0347 63.7098 14.832C64.1471 14.6293 64.5844 14.3467 65.0218 13.984V11.936C63.9124 12.032 63.0378 12.1653 62.3978 12.336C61.7684 12.5067 61.3204 12.7253 61.0538 12.992C60.7978 13.248 60.6698 13.5467 60.6698 13.888C60.6698 14.176 60.7498 14.416 60.9098 14.608C61.0698 14.7893 61.2778 14.9227 61.5338 15.008C61.8004 15.0933 62.0831 15.136 62.3818 15.136ZM71.5595 16V7.568C71.5595 6.93867 71.6715 6.38933 71.8955 5.92C72.1302 5.44 72.4768 5.072 72.9355 4.816C73.3942 4.54933 73.9808 4.416 74.6955 4.416C75.0795 4.416 75.4528 4.45333 75.8155 4.528C76.1888 4.592 76.5622 4.704 76.9355 4.864L76.6315 5.856C76.3115 5.70667 76.0128 5.61067 75.7355 5.568C75.4688 5.51467 75.1648 5.488 74.8235 5.488C74.1302 5.488 73.6288 5.66933 73.3195 6.032C73.0102 6.39467 72.8555 6.89067 72.8555 7.52V16H71.5595ZM69.3355 9.296V8.304L71.6075 8.224H76.1195V9.296H69.3355ZM82.3373 16V9.296H78.7213V8.224H83.6493V16H82.3373ZM82.8493 6.592C82.5506 6.592 82.2999 6.50133 82.0973 6.32C81.8946 6.128 81.7933 5.87733 81.7933 5.568C81.7933 5.25867 81.8946 5.01333 82.0973 4.832C82.2999 4.64 82.5506 4.544 82.8493 4.544C83.1479 4.544 83.3986 4.64 83.6013 4.832C83.8039 5.01333 83.9053 5.25867 83.9053 5.568C83.9053 5.87733 83.8039 6.128 83.6013 6.32C83.3986 6.50133 83.1479 6.592 82.8493 6.592Z" fill="black"/>
<path d="M0.921212 12.8038L1.11967 12.3448L0.921212 12.8038ZM5.7532 8.56516L0.626061 11.4752L1.11967 12.3448L6.2468 9.43484L5.7532 8.56516ZM0.722756 13.2627L5.80154 15.4589L6.19846 14.5411L1.11967 12.3448L0.722756 13.2627ZM0.626061 11.4752C-0.0917698 11.8826 -0.034831 12.9351 0.722756 13.2627L1.11967 12.3448L1.11967 12.3448L0.626061 11.4752Z" fill="black"/>
<path d="M89 9L94.1271 11.91C94.4861 12.1137 94.4576 12.64 94.0788 12.8038L89 15" stroke="black" stroke-linejoin="round"/>
</svg>
